<mxfile host="app.diagrams.net" modified="2024-04-05T06:35:08.115Z" agent="Mozilla/5.0 (X11; Linux x86_64) AppleWebKit/537.36 (KHTML, like Gecko) Chrome/122.0.0.0 Safari/537.36" etag="A0AMdnA1D0GTWODHqYLJ" version="24.2.2" type="device">
  <diagram name="Page-1" id="DAPzgy6hHIa0YQd9GXSm">
    <mxGraphModel dx="1434" dy="793" grid="1" gridSize="10" guides="1" tooltips="1" connect="1" arrows="1" fold="1" page="1" pageScale="1" pageWidth="850" pageHeight="1100" math="0" shadow="0">
      <root>
        <mxCell id="0" />
        <mxCell id="1" parent="0" />
        <mxCell id="9tnwymdPSBEHqzUF6Bh2-1" value="Bemor" style="swimlane;horizontal=0;whiteSpace=wrap;html=1;" parent="1" vertex="1">
          <mxGeometry width="3200" height="200" as="geometry" />
        </mxCell>
        <mxCell id="9tnwymdPSBEHqzUF6Bh2-6" value="" style="edgeStyle=orthogonalEdgeStyle;rounded=0;orthogonalLoop=1;jettySize=auto;html=1;" parent="9tnwymdPSBEHqzUF6Bh2-1" source="9tnwymdPSBEHqzUF6Bh2-4" target="9tnwymdPSBEHqzUF6Bh2-5" edge="1">
          <mxGeometry relative="1" as="geometry" />
        </mxCell>
        <mxCell id="9tnwymdPSBEHqzUF6Bh2-4" value="" style="points=[[0.145,0.145,0],[0.5,0,0],[0.855,0.145,0],[1,0.5,0],[0.855,0.855,0],[0.5,1,0],[0.145,0.855,0],[0,0.5,0]];shape=mxgraph.bpmn.event;html=1;verticalLabelPosition=bottom;labelBackgroundColor=#ffffff;verticalAlign=top;align=center;perimeter=ellipsePerimeter;outlineConnect=0;aspect=fixed;outline=standard;symbol=general;" parent="9tnwymdPSBEHqzUF6Bh2-1" vertex="1">
          <mxGeometry x="40" y="87.5" width="25" height="25" as="geometry" />
        </mxCell>
        <mxCell id="9tnwymdPSBEHqzUF6Bh2-32" style="edgeStyle=orthogonalEdgeStyle;rounded=0;orthogonalLoop=1;jettySize=auto;html=1;exitX=1;exitY=0.5;exitDx=0;exitDy=0;entryX=0;entryY=0.41;entryDx=0;entryDy=0;entryPerimeter=0;" parent="9tnwymdPSBEHqzUF6Bh2-1" source="9tnwymdPSBEHqzUF6Bh2-5" target="9tnwymdPSBEHqzUF6Bh2-33" edge="1">
          <mxGeometry relative="1" as="geometry">
            <mxPoint x="750" y="99.61538461538453" as="targetPoint" />
          </mxGeometry>
        </mxCell>
        <mxCell id="9tnwymdPSBEHqzUF6Bh2-5" value="Ro&#39;yxatdan o&#39;tadi" style="whiteSpace=wrap;html=1;verticalAlign=top;labelBackgroundColor=#ffffff;" parent="9tnwymdPSBEHqzUF6Bh2-1" vertex="1">
          <mxGeometry x="125" y="70" width="120" height="60" as="geometry" />
        </mxCell>
        <mxCell id="9tnwymdPSBEHqzUF6Bh2-35" value="" style="edgeStyle=orthogonalEdgeStyle;rounded=0;orthogonalLoop=1;jettySize=auto;html=1;" parent="9tnwymdPSBEHqzUF6Bh2-1" source="9tnwymdPSBEHqzUF6Bh2-33" target="9tnwymdPSBEHqzUF6Bh2-34" edge="1">
          <mxGeometry relative="1" as="geometry" />
        </mxCell>
        <mxCell id="9tnwymdPSBEHqzUF6Bh2-33" value="Qabul qiladi" style="rounded=1;whiteSpace=wrap;html=1;" parent="9tnwymdPSBEHqzUF6Bh2-1" vertex="1">
          <mxGeometry x="740" y="75" width="120" height="60" as="geometry" />
        </mxCell>
        <mxCell id="9tnwymdPSBEHqzUF6Bh2-51" value="" style="edgeStyle=orthogonalEdgeStyle;rounded=0;orthogonalLoop=1;jettySize=auto;html=1;" parent="9tnwymdPSBEHqzUF6Bh2-1" source="9tnwymdPSBEHqzUF6Bh2-34" target="9tnwymdPSBEHqzUF6Bh2-50" edge="1">
          <mxGeometry relative="1" as="geometry" />
        </mxCell>
        <mxCell id="9tnwymdPSBEHqzUF6Bh2-34" value="Doctor bilan uchrashadi" style="whiteSpace=wrap;html=1;rounded=1;" parent="9tnwymdPSBEHqzUF6Bh2-1" vertex="1">
          <mxGeometry x="940" y="75" width="120" height="60" as="geometry" />
        </mxCell>
        <mxCell id="9tnwymdPSBEHqzUF6Bh2-54" value="" style="edgeStyle=orthogonalEdgeStyle;rounded=0;orthogonalLoop=1;jettySize=auto;html=1;" parent="9tnwymdPSBEHqzUF6Bh2-1" source="9tnwymdPSBEHqzUF6Bh2-50" target="9tnwymdPSBEHqzUF6Bh2-53" edge="1">
          <mxGeometry relative="1" as="geometry" />
        </mxCell>
        <mxCell id="9tnwymdPSBEHqzUF6Bh2-50" value="Qabul qiladi" style="whiteSpace=wrap;html=1;rounded=1;" parent="9tnwymdPSBEHqzUF6Bh2-1" vertex="1">
          <mxGeometry x="1660" y="75" width="120" height="60" as="geometry" />
        </mxCell>
        <mxCell id="9tnwymdPSBEHqzUF6Bh2-58" style="edgeStyle=orthogonalEdgeStyle;rounded=0;orthogonalLoop=1;jettySize=auto;html=1;exitX=1;exitY=0.5;exitDx=0;exitDy=0;entryX=0;entryY=0.5;entryDx=0;entryDy=0;" parent="9tnwymdPSBEHqzUF6Bh2-1" source="9tnwymdPSBEHqzUF6Bh2-53" target="9tnwymdPSBEHqzUF6Bh2-59" edge="1">
          <mxGeometry relative="1" as="geometry">
            <mxPoint x="2240" y="105.33333333333326" as="targetPoint" />
          </mxGeometry>
        </mxCell>
        <mxCell id="9tnwymdPSBEHqzUF6Bh2-53" value="Diagnos olish uchun boradi" style="whiteSpace=wrap;html=1;rounded=1;" parent="9tnwymdPSBEHqzUF6Bh2-1" vertex="1">
          <mxGeometry x="1860" y="75" width="120" height="60" as="geometry" />
        </mxCell>
        <mxCell id="to3KyzwWGJLETJ1h7v1e-3" value="" style="edgeStyle=orthogonalEdgeStyle;rounded=0;orthogonalLoop=1;jettySize=auto;html=1;" parent="9tnwymdPSBEHqzUF6Bh2-1" source="9tnwymdPSBEHqzUF6Bh2-59" target="to3KyzwWGJLETJ1h7v1e-2" edge="1">
          <mxGeometry relative="1" as="geometry" />
        </mxCell>
        <mxCell id="9tnwymdPSBEHqzUF6Bh2-59" value="Navbatdagi doctor qabuliga yoziladi" style="rounded=1;whiteSpace=wrap;html=1;" parent="9tnwymdPSBEHqzUF6Bh2-1" vertex="1">
          <mxGeometry x="2250" y="75" width="120" height="60" as="geometry" />
        </mxCell>
        <mxCell id="to3KyzwWGJLETJ1h7v1e-12" value="" style="edgeStyle=orthogonalEdgeStyle;rounded=0;orthogonalLoop=1;jettySize=auto;html=1;" parent="9tnwymdPSBEHqzUF6Bh2-1" source="to3KyzwWGJLETJ1h7v1e-2" target="to3KyzwWGJLETJ1h7v1e-11" edge="1">
          <mxGeometry relative="1" as="geometry" />
        </mxCell>
        <mxCell id="to3KyzwWGJLETJ1h7v1e-2" value="Doctor bilan yana uchrashadi" style="whiteSpace=wrap;html=1;rounded=1;" parent="9tnwymdPSBEHqzUF6Bh2-1" vertex="1">
          <mxGeometry x="2520" y="75" width="120" height="60" as="geometry" />
        </mxCell>
        <mxCell id="to3KyzwWGJLETJ1h7v1e-14" value="" style="edgeStyle=orthogonalEdgeStyle;rounded=0;orthogonalLoop=1;jettySize=auto;html=1;" parent="9tnwymdPSBEHqzUF6Bh2-1" source="to3KyzwWGJLETJ1h7v1e-11" target="to3KyzwWGJLETJ1h7v1e-13" edge="1">
          <mxGeometry relative="1" as="geometry" />
        </mxCell>
        <mxCell id="to3KyzwWGJLETJ1h7v1e-11" value="Kassa borishni qabul qiladi" style="whiteSpace=wrap;html=1;rounded=1;" parent="9tnwymdPSBEHqzUF6Bh2-1" vertex="1">
          <mxGeometry x="2720" y="75" width="120" height="60" as="geometry" />
        </mxCell>
        <mxCell id="JftCjf9OQ0EL8kpNW4A2-1" style="edgeStyle=orthogonalEdgeStyle;rounded=0;orthogonalLoop=1;jettySize=auto;html=1;entryX=0;entryY=0.5;entryDx=0;entryDy=0;entryPerimeter=0;" edge="1" parent="9tnwymdPSBEHqzUF6Bh2-1" source="to3KyzwWGJLETJ1h7v1e-13" target="JftCjf9OQ0EL8kpNW4A2-2">
          <mxGeometry relative="1" as="geometry">
            <mxPoint x="3100" y="105" as="targetPoint" />
          </mxGeometry>
        </mxCell>
        <mxCell id="to3KyzwWGJLETJ1h7v1e-13" value="Kassaga boradi" style="whiteSpace=wrap;html=1;rounded=1;" parent="9tnwymdPSBEHqzUF6Bh2-1" vertex="1">
          <mxGeometry x="2920" y="75" width="120" height="60" as="geometry" />
        </mxCell>
        <mxCell id="JftCjf9OQ0EL8kpNW4A2-2" value="" style="points=[[0.145,0.145,0],[0.5,0,0],[0.855,0.145,0],[1,0.5,0],[0.855,0.855,0],[0.5,1,0],[0.145,0.855,0],[0,0.5,0]];shape=mxgraph.bpmn.event;html=1;verticalLabelPosition=bottom;labelBackgroundColor=#ffffff;verticalAlign=top;align=center;perimeter=ellipsePerimeter;outlineConnect=0;aspect=fixed;outline=end;symbol=terminate2;" vertex="1" parent="9tnwymdPSBEHqzUF6Bh2-1">
          <mxGeometry x="3100" y="80" width="50" height="50" as="geometry" />
        </mxCell>
        <mxCell id="9tnwymdPSBEHqzUF6Bh2-2" value="Hamshira" style="swimlane;horizontal=0;whiteSpace=wrap;html=1;" parent="1" vertex="1">
          <mxGeometry y="480" width="3200" height="300" as="geometry" />
        </mxCell>
        <mxCell id="9tnwymdPSBEHqzUF6Bh2-22" style="edgeStyle=orthogonalEdgeStyle;rounded=0;orthogonalLoop=1;jettySize=auto;html=1;exitX=1;exitY=0.5;exitDx=0;exitDy=0;" parent="9tnwymdPSBEHqzUF6Bh2-2" source="9tnwymdPSBEHqzUF6Bh2-9" target="9tnwymdPSBEHqzUF6Bh2-21" edge="1">
          <mxGeometry relative="1" as="geometry" />
        </mxCell>
        <mxCell id="9tnwymdPSBEHqzUF6Bh2-9" value="Bemorni tekshiradi" style="whiteSpace=wrap;html=1;verticalAlign=top;labelBackgroundColor=#ffffff;" parent="9tnwymdPSBEHqzUF6Bh2-2" vertex="1">
          <mxGeometry x="325" y="110" width="120" height="60" as="geometry" />
        </mxCell>
        <mxCell id="9tnwymdPSBEHqzUF6Bh2-24" value="" style="edgeStyle=orthogonalEdgeStyle;rounded=0;orthogonalLoop=1;jettySize=auto;html=1;" parent="9tnwymdPSBEHqzUF6Bh2-2" source="9tnwymdPSBEHqzUF6Bh2-21" target="9tnwymdPSBEHqzUF6Bh2-23" edge="1">
          <mxGeometry relative="1" as="geometry">
            <Array as="points">
              <mxPoint x="515" y="60" />
            </Array>
          </mxGeometry>
        </mxCell>
        <mxCell id="9tnwymdPSBEHqzUF6Bh2-28" value="" style="edgeStyle=orthogonalEdgeStyle;rounded=0;orthogonalLoop=1;jettySize=auto;html=1;" parent="9tnwymdPSBEHqzUF6Bh2-2" source="9tnwymdPSBEHqzUF6Bh2-21" target="9tnwymdPSBEHqzUF6Bh2-27" edge="1">
          <mxGeometry relative="1" as="geometry">
            <Array as="points">
              <mxPoint x="520" y="210" />
            </Array>
          </mxGeometry>
        </mxCell>
        <mxCell id="9tnwymdPSBEHqzUF6Bh2-21" value="" style="points=[[0.25,0.25,0],[0.5,0,0],[0.75,0.25,0],[1,0.5,0],[0.75,0.75,0],[0.5,1,0],[0.25,0.75,0],[0,0.5,0]];shape=mxgraph.bpmn.gateway2;html=1;verticalLabelPosition=bottom;labelBackgroundColor=#ffffff;verticalAlign=top;align=center;perimeter=rhombusPerimeter;outlineConnect=0;outline=none;symbol=none;gwType=exclusive;" parent="9tnwymdPSBEHqzUF6Bh2-2" vertex="1">
          <mxGeometry x="490" y="115" width="50" height="50" as="geometry" />
        </mxCell>
        <mxCell id="9tnwymdPSBEHqzUF6Bh2-23" value="zarur bo&#39;lmasa qaytadi" style="whiteSpace=wrap;html=1;verticalAlign=top;labelBackgroundColor=#ffffff;" parent="9tnwymdPSBEHqzUF6Bh2-2" vertex="1">
          <mxGeometry x="550" y="30" width="120" height="60" as="geometry" />
        </mxCell>
        <mxCell id="9tnwymdPSBEHqzUF6Bh2-26" style="edgeStyle=orthogonalEdgeStyle;rounded=0;orthogonalLoop=1;jettySize=auto;html=1;exitX=1;exitY=0.5;exitDx=0;exitDy=0;entryX=0;entryY=0.5;entryDx=0;entryDy=0;entryPerimeter=0;" parent="9tnwymdPSBEHqzUF6Bh2-2" source="9tnwymdPSBEHqzUF6Bh2-23" target="to3KyzwWGJLETJ1h7v1e-21" edge="1">
          <mxGeometry relative="1" as="geometry">
            <mxPoint x="730" y="60" as="targetPoint" />
          </mxGeometry>
        </mxCell>
        <mxCell id="9tnwymdPSBEHqzUF6Bh2-31" value="" style="edgeStyle=orthogonalEdgeStyle;rounded=0;orthogonalLoop=1;jettySize=auto;html=1;" parent="9tnwymdPSBEHqzUF6Bh2-2" source="9tnwymdPSBEHqzUF6Bh2-27" target="9tnwymdPSBEHqzUF6Bh2-30" edge="1">
          <mxGeometry relative="1" as="geometry" />
        </mxCell>
        <mxCell id="9tnwymdPSBEHqzUF6Bh2-27" value="Kerak bo&#39;lsa doctorga yozadi vaqtiga qarab" style="whiteSpace=wrap;html=1;verticalAlign=top;labelBackgroundColor=#ffffff;" parent="9tnwymdPSBEHqzUF6Bh2-2" vertex="1">
          <mxGeometry x="560" y="180" width="120" height="60" as="geometry" />
        </mxCell>
        <mxCell id="9tnwymdPSBEHqzUF6Bh2-30" value="Doctor bilan uchrashishini aytadi" style="whiteSpace=wrap;html=1;verticalAlign=top;labelBackgroundColor=#ffffff;" parent="9tnwymdPSBEHqzUF6Bh2-2" vertex="1">
          <mxGeometry x="740" y="180" width="120" height="60" as="geometry" />
        </mxCell>
        <mxCell id="to3KyzwWGJLETJ1h7v1e-21" value="" style="points=[[0.145,0.145,0],[0.5,0,0],[0.855,0.145,0],[1,0.5,0],[0.855,0.855,0],[0.5,1,0],[0.145,0.855,0],[0,0.5,0]];shape=mxgraph.bpmn.event;html=1;verticalLabelPosition=bottom;labelBackgroundColor=#ffffff;verticalAlign=top;align=center;perimeter=ellipsePerimeter;outlineConnect=0;aspect=fixed;outline=end;symbol=terminate2;" parent="9tnwymdPSBEHqzUF6Bh2-2" vertex="1">
          <mxGeometry x="730" y="35" width="50" height="50" as="geometry" />
        </mxCell>
        <mxCell id="9tnwymdPSBEHqzUF6Bh2-3" value="Shifokor" style="swimlane;horizontal=0;whiteSpace=wrap;html=1;" parent="1" vertex="1">
          <mxGeometry y="800" width="3200" height="200" as="geometry" />
        </mxCell>
        <mxCell id="9tnwymdPSBEHqzUF6Bh2-39" value="" style="edgeStyle=orthogonalEdgeStyle;rounded=0;orthogonalLoop=1;jettySize=auto;html=1;" parent="9tnwymdPSBEHqzUF6Bh2-3" source="9tnwymdPSBEHqzUF6Bh2-29" target="9tnwymdPSBEHqzUF6Bh2-38" edge="1">
          <mxGeometry relative="1" as="geometry" />
        </mxCell>
        <mxCell id="9tnwymdPSBEHqzUF6Bh2-29" value="Bemorni qabul qiladi" style="rounded=1;whiteSpace=wrap;html=1;" parent="9tnwymdPSBEHqzUF6Bh2-3" vertex="1">
          <mxGeometry x="930" y="70" width="120" height="60" as="geometry" />
        </mxCell>
        <mxCell id="9tnwymdPSBEHqzUF6Bh2-38" value="" style="whiteSpace=wrap;html=1;rounded=1;" parent="9tnwymdPSBEHqzUF6Bh2-3" vertex="1">
          <mxGeometry x="1140" y="35" width="440" height="130" as="geometry" />
        </mxCell>
        <mxCell id="9tnwymdPSBEHqzUF6Bh2-46" style="edgeStyle=orthogonalEdgeStyle;rounded=0;orthogonalLoop=1;jettySize=auto;html=1;exitX=1;exitY=0.5;exitDx=0;exitDy=0;entryX=0;entryY=0.5;entryDx=0;entryDy=0;" parent="9tnwymdPSBEHqzUF6Bh2-3" source="9tnwymdPSBEHqzUF6Bh2-42" target="9tnwymdPSBEHqzUF6Bh2-43" edge="1">
          <mxGeometry relative="1" as="geometry" />
        </mxCell>
        <mxCell id="9tnwymdPSBEHqzUF6Bh2-42" value="Tabiy tarixini ko&#39;radi" style="rounded=1;whiteSpace=wrap;html=1;" parent="9tnwymdPSBEHqzUF6Bh2-3" vertex="1">
          <mxGeometry x="1160" y="70" width="120" height="60" as="geometry" />
        </mxCell>
        <mxCell id="9tnwymdPSBEHqzUF6Bh2-48" style="edgeStyle=orthogonalEdgeStyle;rounded=0;orthogonalLoop=1;jettySize=auto;html=1;exitX=1;exitY=0.5;exitDx=0;exitDy=0;entryX=0;entryY=0.5;entryDx=0;entryDy=0;" parent="9tnwymdPSBEHqzUF6Bh2-3" source="9tnwymdPSBEHqzUF6Bh2-43" target="9tnwymdPSBEHqzUF6Bh2-44" edge="1">
          <mxGeometry relative="1" as="geometry" />
        </mxCell>
        <mxCell id="9tnwymdPSBEHqzUF6Bh2-43" value="Simtomlari bilan tanishadi" style="rounded=1;whiteSpace=wrap;html=1;" parent="9tnwymdPSBEHqzUF6Bh2-3" vertex="1">
          <mxGeometry x="1300" y="70" width="110" height="60" as="geometry" />
        </mxCell>
        <mxCell id="9tnwymdPSBEHqzUF6Bh2-44" value="uni o&#39;zi tekshirib ko&#39;radi." style="rounded=1;whiteSpace=wrap;html=1;" parent="9tnwymdPSBEHqzUF6Bh2-3" vertex="1">
          <mxGeometry x="1430" y="70" width="120" height="60" as="geometry" />
        </mxCell>
        <mxCell id="to3KyzwWGJLETJ1h7v1e-9" value="" style="edgeStyle=orthogonalEdgeStyle;rounded=0;orthogonalLoop=1;jettySize=auto;html=1;" parent="9tnwymdPSBEHqzUF6Bh2-3" source="to3KyzwWGJLETJ1h7v1e-4" target="to3KyzwWGJLETJ1h7v1e-8" edge="1">
          <mxGeometry relative="1" as="geometry" />
        </mxCell>
        <mxCell id="to3KyzwWGJLETJ1h7v1e-4" value="Doctor yana ko&#39;rib chiqadi va unga dori yozib beradi" style="whiteSpace=wrap;html=1;rounded=1;" parent="9tnwymdPSBEHqzUF6Bh2-3" vertex="1">
          <mxGeometry x="2520" y="70" width="120" height="60" as="geometry" />
        </mxCell>
        <mxCell id="to3KyzwWGJLETJ1h7v1e-8" value="Kassa borib to&#39;lov qilishi kerakligini aytadi" style="whiteSpace=wrap;html=1;rounded=1;" parent="9tnwymdPSBEHqzUF6Bh2-3" vertex="1">
          <mxGeometry x="2720" y="70" width="120" height="60" as="geometry" />
        </mxCell>
        <mxCell id="9tnwymdPSBEHqzUF6Bh2-12" value="Qabulxona" style="swimlane;horizontal=0;whiteSpace=wrap;html=1;startSize=23;" parent="1" vertex="1">
          <mxGeometry y="240" width="3200" height="200" as="geometry" />
        </mxCell>
        <mxCell id="9tnwymdPSBEHqzUF6Bh2-19" value="" style="edgeStyle=orthogonalEdgeStyle;rounded=0;orthogonalLoop=1;jettySize=auto;html=1;" parent="9tnwymdPSBEHqzUF6Bh2-12" source="9tnwymdPSBEHqzUF6Bh2-16" target="9tnwymdPSBEHqzUF6Bh2-18" edge="1">
          <mxGeometry relative="1" as="geometry" />
        </mxCell>
        <mxCell id="9tnwymdPSBEHqzUF6Bh2-16" value="Bemor qabul qiladi" style="rounded=1;whiteSpace=wrap;html=1;" parent="9tnwymdPSBEHqzUF6Bh2-12" vertex="1">
          <mxGeometry x="125" y="70" width="120" height="60" as="geometry" />
        </mxCell>
        <mxCell id="9tnwymdPSBEHqzUF6Bh2-18" value="Hamshiraga yuboradi" style="whiteSpace=wrap;html=1;rounded=1;" parent="9tnwymdPSBEHqzUF6Bh2-12" vertex="1">
          <mxGeometry x="325" y="70" width="120" height="60" as="geometry" />
        </mxCell>
        <mxCell id="9tnwymdPSBEHqzUF6Bh2-14" value="Diagnostika" style="swimlane;horizontal=0;whiteSpace=wrap;html=1;" parent="1" vertex="1">
          <mxGeometry y="1020" width="3200" height="200" as="geometry" />
        </mxCell>
        <mxCell id="9tnwymdPSBEHqzUF6Bh2-57" value="" style="edgeStyle=orthogonalEdgeStyle;rounded=0;orthogonalLoop=1;jettySize=auto;html=1;" parent="9tnwymdPSBEHqzUF6Bh2-14" source="9tnwymdPSBEHqzUF6Bh2-49" target="9tnwymdPSBEHqzUF6Bh2-56" edge="1">
          <mxGeometry relative="1" as="geometry" />
        </mxCell>
        <mxCell id="9tnwymdPSBEHqzUF6Bh2-49" value="Dyagnostik testdan o&#39;tadi" style="rounded=1;whiteSpace=wrap;html=1;" parent="9tnwymdPSBEHqzUF6Bh2-14" vertex="1">
          <mxGeometry x="1860" y="70" width="120" height="60" as="geometry" />
        </mxCell>
        <mxCell id="9tnwymdPSBEHqzUF6Bh2-56" value="Javobi chiqadi" style="whiteSpace=wrap;html=1;rounded=1;" parent="9tnwymdPSBEHqzUF6Bh2-14" vertex="1">
          <mxGeometry x="2250" y="70" width="120" height="60" as="geometry" />
        </mxCell>
        <mxCell id="9tnwymdPSBEHqzUF6Bh2-15" value="Kassa" style="swimlane;horizontal=0;whiteSpace=wrap;html=1;" parent="1" vertex="1">
          <mxGeometry y="1260" width="3200" height="200" as="geometry" />
        </mxCell>
        <mxCell id="to3KyzwWGJLETJ1h7v1e-18" style="edgeStyle=orthogonalEdgeStyle;rounded=0;orthogonalLoop=1;jettySize=auto;html=1;entryX=0;entryY=0.5;entryDx=0;entryDy=0;" parent="9tnwymdPSBEHqzUF6Bh2-15" source="to3KyzwWGJLETJ1h7v1e-15" target="to3KyzwWGJLETJ1h7v1e-17" edge="1">
          <mxGeometry relative="1" as="geometry" />
        </mxCell>
        <mxCell id="to3KyzwWGJLETJ1h7v1e-15" value="Kassachi to&#39;lovni qabul qilib oladi" style="whiteSpace=wrap;html=1;rounded=1;" parent="9tnwymdPSBEHqzUF6Bh2-15" vertex="1">
          <mxGeometry x="2930" y="65" width="120" height="60" as="geometry" />
        </mxCell>
        <mxCell id="to3KyzwWGJLETJ1h7v1e-16" value="" style="edgeStyle=orthogonalEdgeStyle;rounded=0;orthogonalLoop=1;jettySize=auto;html=1;exitX=0.5;exitY=1;exitDx=0;exitDy=0;" parent="9tnwymdPSBEHqzUF6Bh2-15" target="to3KyzwWGJLETJ1h7v1e-15" edge="1">
          <mxGeometry relative="1" as="geometry">
            <mxPoint x="2990" y="-1125" as="sourcePoint" />
          </mxGeometry>
        </mxCell>
        <mxCell id="to3KyzwWGJLETJ1h7v1e-17" value="" style="ellipse;html=1;shape=endState;fillColor=#000000;strokeColor=#ff0000;" parent="9tnwymdPSBEHqzUF6Bh2-15" vertex="1">
          <mxGeometry x="3110" y="80" width="30" height="30" as="geometry" />
        </mxCell>
        <mxCell id="9tnwymdPSBEHqzUF6Bh2-17" style="edgeStyle=orthogonalEdgeStyle;rounded=0;orthogonalLoop=1;jettySize=auto;html=1;exitX=0.5;exitY=1;exitDx=0;exitDy=0;dashed=1;" parent="1" source="9tnwymdPSBEHqzUF6Bh2-5" target="9tnwymdPSBEHqzUF6Bh2-16" edge="1">
          <mxGeometry relative="1" as="geometry" />
        </mxCell>
        <mxCell id="9tnwymdPSBEHqzUF6Bh2-20" style="edgeStyle=orthogonalEdgeStyle;rounded=0;orthogonalLoop=1;jettySize=auto;html=1;exitX=0.5;exitY=1;exitDx=0;exitDy=0;entryX=0.5;entryY=0;entryDx=0;entryDy=0;dashed=1;" parent="1" source="9tnwymdPSBEHqzUF6Bh2-18" target="9tnwymdPSBEHqzUF6Bh2-9" edge="1">
          <mxGeometry relative="1" as="geometry" />
        </mxCell>
        <mxCell id="9tnwymdPSBEHqzUF6Bh2-36" style="edgeStyle=orthogonalEdgeStyle;rounded=0;orthogonalLoop=1;jettySize=auto;html=1;exitX=0.5;exitY=0;exitDx=0;exitDy=0;entryX=0.5;entryY=1;entryDx=0;entryDy=0;dashed=1;" parent="1" source="9tnwymdPSBEHqzUF6Bh2-30" target="9tnwymdPSBEHqzUF6Bh2-33" edge="1">
          <mxGeometry relative="1" as="geometry" />
        </mxCell>
        <mxCell id="9tnwymdPSBEHqzUF6Bh2-37" style="edgeStyle=orthogonalEdgeStyle;rounded=0;orthogonalLoop=1;jettySize=auto;html=1;exitX=0.5;exitY=1;exitDx=0;exitDy=0;entryX=0.5;entryY=0;entryDx=0;entryDy=0;dashed=1;" parent="1" source="9tnwymdPSBEHqzUF6Bh2-34" target="9tnwymdPSBEHqzUF6Bh2-29" edge="1">
          <mxGeometry relative="1" as="geometry" />
        </mxCell>
        <mxCell id="9tnwymdPSBEHqzUF6Bh2-52" style="edgeStyle=orthogonalEdgeStyle;rounded=0;orthogonalLoop=1;jettySize=auto;html=1;exitX=0.5;exitY=0;exitDx=0;exitDy=0;entryX=0.5;entryY=1;entryDx=0;entryDy=0;dashed=1;" parent="1" source="9tnwymdPSBEHqzUF6Bh2-40" target="9tnwymdPSBEHqzUF6Bh2-50" edge="1">
          <mxGeometry relative="1" as="geometry" />
        </mxCell>
        <mxCell id="to3KyzwWGJLETJ1h7v1e-5" value="" style="edgeStyle=orthogonalEdgeStyle;rounded=0;orthogonalLoop=1;jettySize=auto;html=1;" parent="1" source="9tnwymdPSBEHqzUF6Bh2-40" target="to3KyzwWGJLETJ1h7v1e-4" edge="1">
          <mxGeometry relative="1" as="geometry" />
        </mxCell>
        <mxCell id="9tnwymdPSBEHqzUF6Bh2-40" value="Diagnostikaga jo&#39;natadi" style="whiteSpace=wrap;html=1;rounded=1;" parent="1" vertex="1">
          <mxGeometry x="1660" y="870" width="120" height="60" as="geometry" />
        </mxCell>
        <mxCell id="9tnwymdPSBEHqzUF6Bh2-41" value="" style="edgeStyle=orthogonalEdgeStyle;rounded=0;orthogonalLoop=1;jettySize=auto;html=1;" parent="1" source="9tnwymdPSBEHqzUF6Bh2-38" target="9tnwymdPSBEHqzUF6Bh2-40" edge="1">
          <mxGeometry relative="1" as="geometry" />
        </mxCell>
        <mxCell id="9tnwymdPSBEHqzUF6Bh2-55" style="edgeStyle=orthogonalEdgeStyle;rounded=0;orthogonalLoop=1;jettySize=auto;html=1;exitX=0.5;exitY=1;exitDx=0;exitDy=0;entryX=0.5;entryY=0;entryDx=0;entryDy=0;dashed=1;" parent="1" source="9tnwymdPSBEHqzUF6Bh2-53" target="9tnwymdPSBEHqzUF6Bh2-49" edge="1">
          <mxGeometry relative="1" as="geometry" />
        </mxCell>
        <mxCell id="9tnwymdPSBEHqzUF6Bh2-60" style="edgeStyle=orthogonalEdgeStyle;rounded=0;orthogonalLoop=1;jettySize=auto;html=1;exitX=0.5;exitY=0;exitDx=0;exitDy=0;entryX=0.5;entryY=1;entryDx=0;entryDy=0;dashed=1;" parent="1" source="9tnwymdPSBEHqzUF6Bh2-56" target="9tnwymdPSBEHqzUF6Bh2-59" edge="1">
          <mxGeometry relative="1" as="geometry" />
        </mxCell>
        <mxCell id="to3KyzwWGJLETJ1h7v1e-6" style="edgeStyle=orthogonalEdgeStyle;rounded=0;orthogonalLoop=1;jettySize=auto;html=1;" parent="1" source="to3KyzwWGJLETJ1h7v1e-2" target="to3KyzwWGJLETJ1h7v1e-4" edge="1">
          <mxGeometry relative="1" as="geometry" />
        </mxCell>
        <mxCell id="to3KyzwWGJLETJ1h7v1e-10" style="edgeStyle=orthogonalEdgeStyle;rounded=0;orthogonalLoop=1;jettySize=auto;html=1;entryX=0.5;entryY=1;entryDx=0;entryDy=0;" parent="1" source="to3KyzwWGJLETJ1h7v1e-8" target="to3KyzwWGJLETJ1h7v1e-11" edge="1">
          <mxGeometry relative="1" as="geometry" />
        </mxCell>
      </root>
    </mxGraphModel>
  </diagram>
</mxfile>
